<?xml version="1.0" encoding="utf-8"?>
<!-- Generator: Adobe Illustrator 19.2.1, SVG Export Plug-In . SVG Version: 6.00 Build 0)  -->
<!DOCTYPE svg PUBLIC "-//W3C//DTD SVG 1.1//EN" "http://www.w3.org/Graphics/SVG/1.1/DTD/svg11.dtd">
<svg version="1.1" xmlns="http://www.w3.org/2000/svg" xmlns:xlink="http://www.w3.org/1999/xlink" x="0px" y="0px"
	 viewBox="0 0 212 202" enable-background="new 0 0 212 202" xml:space="preserve">
<g id="Layer_2">
	<rect fill="#2B2B2B" width="212" height="202"/>
</g>
<g id="white_R">
	<g>
		<g>
			<path fill="#FFFFFF" d="M125.8,41.2c-13-5.7-27.2-1-39.6,4.1c-5.4,2.2-9.7,4.4-13,9.4c-3.6,5.5-6.3,12.2-8.5,18.4
				c-2.7,7.5-3.6,15.6-4,23.5c-0.4,7.4-0.2,15,2.8,21.9c5.2,12.1,9.4,26.8,23.9,29.9c6.8,1.5,13.7,0.6,20.5,0.7
				c9.3,0.1,18.3-0.3,27.3-3c2.9-0.9,1.7-5.5-1.3-4.6c-8.5,2.6-17.2,2.8-26,2.8c-6.6,0-13.4,0.9-19.9-0.7
				c-8.7-2.1-12.4-9.1-15.6-16.9c-3.5-8.4-7-15.7-7-25.1c0-8.9,0.7-18.1,3.7-26.5c2.3-6.6,5.2-14.9,9.9-20.2
				c4.4-5,13.1-7.2,19.3-9.1c8.1-2.5,17.1-4.1,25.1-0.6C126.2,46.6,128.6,42.5,125.8,41.2L125.8,41.2z"/>
		</g>
	</g>
	<g>
		<g>
			<path fill="#FFFFFF" d="M130.4,57.2c-13.8-13.9-35.7-9.6-47.4,4.7C70.5,77,70.3,98.6,76.4,116.4c2.7,7.7,6.4,14.6,13.9,18.4
				c7.5,3.8,15.1,1.1,23,1.1c6.6,0,14.6,2,20.3-2.4c7.2-5.5,7.2-16.2,7.3-24.5c0.1-10.2-3-20.2-12.8-25c-11-5.4-23.3-2-34.4,1.4
				c-2.9,0.9-1.7,5.5,1.3,4.6c8.4-2.6,17.4-5.5,26.3-3.4c9.6,2.3,14.3,9.8,14.8,19.2c0.4,6.9,0.9,18.6-4.9,23.5
				c-4.3,3.6-11.2,1.9-16.3,1.8c-6.1-0.2-12.6,2-18.6,0.7c-7.4-1.5-11.7-7.7-14.3-14.2c-5.7-14.3-7-31.3-0.1-45.5
				C90,55.7,112.3,45.7,127,60.5C129.2,62.7,132.5,59.3,130.4,57.2L130.4,57.2z"/>
		</g>
	</g>
</g>
</svg>
